<svg width="48" height="12" viewBox="0 0 48 12" fill="none" xmlns="http://www.w3.org/2000/svg">
<path d="M41.1768 0.542969C44.1045 0.543188 46.4775 2.91794 46.4775 5.8457C46.4775 6.04346 46.4655 6.23853 46.4443 6.43066C45.9272 6.0697 45.2996 5.85645 44.6211 5.85645C44.5789 5.85645 44.5369 5.85775 44.4951 5.85938C44.4951 5.85482 44.4961 5.85026 44.4961 5.8457C44.4961 4.01187 43.0096 2.52539 41.1758 2.52539C39.342 2.52548 37.8555 4.01192 37.8555 5.8457C37.8558 7.67922 39.3422 9.16592 41.1758 9.16602C41.2619 9.16602 41.3472 9.16073 41.4316 9.1543C41.4553 9.87423 41.7184 10.5328 42.1426 11.0557C41.8293 11.1134 41.5067 11.1465 41.1768 11.1465C38.2491 11.1464 35.8753 8.77332 35.875 5.8457C35.875 2.91783 38.2489 0.543013 41.1768 0.542969ZM44.6211 6.85645C45.2425 6.85645 45.8024 7.11576 46.2012 7.53125C45.7154 8.97953 44.6235 10.1489 43.2246 10.7354C42.7394 10.3335 42.4298 9.72707 42.4297 9.04785C42.4297 9.00367 42.433 8.95955 42.4355 8.91602C43.3303 8.54855 44.0284 7.8031 44.3311 6.87695C44.426 6.86438 44.5227 6.85645 44.6211 6.85645Z" fill="#121B26"/>
<path d="M31.9578 4.04297C33.5538 4.04297 34.6038 5.17697 34.6038 6.92697V11.239H32.7978V7.05297C32.7978 6.22697 32.3778 5.72297 31.6218 5.72297C30.8238 5.72297 30.3198 6.25497 30.3198 7.30497V11.239H28.5138V7.05297C28.5138 6.22697 28.0938 5.72297 27.3378 5.72297C26.5678 5.72297 26.0218 6.25497 26.0218 7.30497V11.239H24.2158V4.23897H26.0218V4.98097C26.4138 4.39297 27.0718 4.04297 27.9678 4.04297C28.8358 4.04297 29.4798 4.40697 29.8718 5.05097C30.3058 4.42097 31.0058 4.04297 31.9578 4.04297Z" fill="#121B26"/>
<path d="M19.2351 11.435C17.1771 11.435 15.5391 9.82497 15.5391 7.73897C15.5391 5.65297 17.1771 4.04297 19.2351 4.04297C21.2931 4.04297 22.9451 5.65297 22.9451 7.73897C22.9451 9.82497 21.2931 11.435 19.2351 11.435ZM19.2351 9.67097C20.3131 9.67097 21.1391 8.87297 21.1391 7.73897C21.1391 6.60497 20.3131 5.80697 19.2351 5.80697C18.1711 5.80697 17.3451 6.60497 17.3451 7.73897C17.3451 8.87297 18.1711 9.67097 19.2351 9.67097Z" fill="#121B26"/>
<path d="M14.8482 5.97505H13.2662V8.88705C13.2662 9.64305 13.8122 9.65705 14.8482 9.60105V11.2391C12.3142 11.5191 11.4602 10.7771 11.4602 8.88705V5.97505H10.2422V4.23905H11.4602V2.82505L13.2662 2.27905V4.23905H14.8482V5.97505Z" fill="#121B26"/>
<path d="M8.15042 11.239L7.56242 9.47497H3.65642L3.06842 11.239H0.982422L4.41242 1.43896H6.80642L10.2504 11.239H8.15042ZM4.27242 7.66896H6.96042L5.61642 3.66497L4.27242 7.66896Z" fill="#121B26"/>
<path d="M46.8125 9.04751C46.8125 10.2578 45.8314 11.2389 44.6211 11.2389C43.4108 11.2389 42.4297 10.2578 42.4297 9.04751C42.4297 7.83722 43.4108 6.85608 44.6211 6.85608C45.8314 6.85608 46.8125 7.83722 46.8125 9.04751Z" fill="#1362FE"/>
</svg>
