<svg preserveAspectRatio="none" width="100%" height="100%" overflow="visible" style="display: block;" viewBox="0 0 24 24" fill="none" xmlns="http://www.w3.org/2000/svg">
<g id="Frame">
<path id="Vector" d="M12.8182 22.9091C12.6328 22.9091 12.4517 22.8601 12.2898 22.7706C11.7635 22.4787 11.5739 21.8139 11.8658 21.2876L14.1371 17.201L11.0455 14.4311L8.8402 16.9304C8.64205 17.2543 8.28835 17.4524 7.90909 17.4545H3C2.39702 17.4545 1.90909 16.9666 1.90909 16.3636C1.90909 15.7607 2.39702 15.2727 3 15.2727H7.29545L10.1143 10.8196L10.0888 10.8047L12.4325 6.65199L10.2464 6L7.54474 8.04332C7.16761 8.29474 6.66051 8.19247 6.40909 7.81534C6.15767 7.43821 6.25994 6.93111 6.63707 6.67969L9.54545 4.49787C9.67969 4.40838 9.83736 4.36151 9.99929 4.36364L13.483 4.7919H13.4893C13.6385 4.7919 13.7834 4.83239 13.9091 4.90909L16.5128 6.38991C16.5746 6.42827 16.6278 6.47301 16.6768 6.52628C16.7472 6.59659 16.8047 6.67756 16.8452 6.76918L18.2749 10.3636H21.2749C21.7266 10.3636 22.093 10.7301 22.093 11.1818C22.093 11.6335 21.7266 12 21.2749 12H17.7337C17.4055 12 17.1094 11.804 16.9815 11.5036L15.6009 8.80611L13.3658 12.7628L16.2102 16.0419C16.6406 16.37 16.7621 16.9645 16.4979 17.4375L13.7706 22.3466C13.5788 22.6918 13.2145 22.9091 12.8182 22.9091ZM17.1818 5.45455C15.9759 5.45455 15 4.47869 15 3.27273C15 2.06676 15.9759 1.09091 17.1818 1.09091C18.3878 1.09091 19.3636 2.06676 19.3636 3.27273C19.3636 4.47869 18.3878 5.45455 17.1818 5.45455Z" fill="var(--fill-0, #FFD882)"/>
<path id="Vector_2" d="M10.1143 10.8196L7.29545 15.2727L8.8402 16.9283L12.8054 12.4347L10.1143 10.8196Z" fill="var(--fill-0, #2A4E62)"/>
<path id="Vector_3" d="M16.5107 6.38991L13.9091 4.90909C13.7834 4.83239 13.6364 4.7919 13.4893 4.7919H13.483L10.0909 10.8047L13.3636 12.7692L16.7919 6.68821C16.7259 6.56676 16.63 6.46449 16.5107 6.38991Z" fill="var(--fill-0, #27D2E6)"/>
<path id="Vector_4" d="M13.3636 12.7713L10.0909 10.8047L10.6428 9.8267L9.81818 11.2926C9.29191 12.1726 9.55398 13.3104 10.4126 13.8686L14.1349 17.2031L16.2102 16.0462L13.3636 12.767V12.7713Z" fill="var(--fill-0, #34617A)"/>
</g>
</svg>
