<svg preserveAspectRatio="none" width="100%" height="100%" overflow="visible" style="display: block;" viewBox="0 0 19.7232 19.7212" fill="none" xmlns="http://www.w3.org/2000/svg">
<path id="Icon" d="M14.9561 13.1979C14.6854 13.504 14.4013 13.8062 14.1042 14.1032C9.80848 18.399 4.42658 19.9819 2.08343 17.6388C0.477032 16.0324 0.715929 12.9977 2.4092 9.86395M4.7304 6.56497C5.01211 6.24466 5.30845 5.92847 5.61897 5.61795C9.91474 1.32218 15.2966 -0.26073 17.6398 2.08242C19.2473 3.68993 19.007 6.72766 17.3105 9.86371M14.1042 5.61795C18.4 9.91372 19.9829 15.2956 17.6398 17.6388C15.2966 19.9819 9.91474 18.399 5.61897 14.1032C1.3232 9.80746 -0.259711 4.42556 2.08343 2.08242C4.42658 -0.26073 9.80848 1.32218 14.1042 5.61795ZM10.8408 9.8397C10.8408 10.392 10.3931 10.8397 9.84079 10.8397C9.28851 10.8397 8.84079 10.392 8.84079 9.8397C8.84079 9.28742 9.28851 8.83971 9.84079 8.83971C10.3931 8.83971 10.8408 9.28742 10.8408 9.8397Z" stroke="var(--stroke-0, #121B26)" stroke-width="2" stroke-linecap="round" stroke-linejoin="round"/>
</svg>
