<svg preserveAspectRatio="none" width="100%" height="100%" overflow="visible" style="display: block;" viewBox="0 0 18.5344 21.5" fill="none" xmlns="http://www.w3.org/2000/svg">
<path id="Vector" d="M12.2682 16.75V17.5C12.2682 18.2956 11.9522 19.0587 11.3896 19.6213C10.827 20.1839 10.0639 20.5 9.26824 20.5C8.47259 20.5 7.70953 20.1839 7.14692 19.6213C6.58431 19.0587 6.26824 18.2956 6.26824 17.5V16.75M17.3157 15.2233C16.112 13.75 15.2621 13 15.2621 8.93828C15.2621 5.21875 13.3628 3.89359 11.7995 3.25C11.5918 3.16469 11.3964 2.96875 11.3331 2.75547C11.0589 1.82219 10.2901 1 9.26824 1C8.24636 1 7.47715 1.82266 7.20574 2.75641C7.14246 2.97203 6.94699 3.16469 6.73933 3.25C5.17418 3.89453 3.27668 5.215 3.27668 8.93828C3.27433 13 2.42449 13.75 1.22074 15.2233C0.72199 15.8336 1.15886 16.75 2.03121 16.75H16.51C17.3776 16.75 17.8117 15.8308 17.3157 15.2233Z" stroke="var(--stroke-0, #121B26)" stroke-width="2" stroke-linecap="round" stroke-linejoin="round"/>
</svg>
