<svg preserveAspectRatio="none" width="100%" height="100%" overflow="visible" style="display: block;" viewBox="0 0 24 24" fill="none" xmlns="http://www.w3.org/2000/svg">
<g id="Frame">
<path id="Vector" d="M10.0476 2.5152C9.8952 4.2072 9.1956 7.3728 6.2916 10.4232C6.378 9.2976 6.1248 8.46 5.8452 7.8996C5.6904 7.5912 5.2344 7.6512 5.1684 7.9896C5.034 8.6796 4.686 9.7488 3.8184 11.2188C2.1396 14.064 2.352 21.9972 11.8044 21.9972C21.2568 21.9972 21.8928 13.728 20.55 10.3716C19.674 8.1816 18.348 6.7968 17.5308 6.0984C17.2632 5.8692 16.848 6.0528 16.8372 6.4044C16.8156 7.1184 16.6656 8.124 16.062 8.7984C16.0464 7.5612 15.168 3.9144 11.3172 1.8408C10.7712 1.5468 10.104 1.8984 10.0476 2.5152Z" fill="var(--fill-0, #FF5D50)"/>
<path id="Vector_2" d="M16.4592 15.9C16.3608 14.844 15.0372 11.9964 11.4756 10.1244C11.2272 9.9936 10.9344 10.1976 10.9716 10.476C11.118 11.574 11.2752 13.7688 10.4076 14.8056C10.5024 13.8588 9.9828 13.0752 9.5484 12.5952C9.3516 12.3792 8.9964 12.486 8.9508 12.7752C8.868 13.2984 8.6496 14.094 8.094 15.0708C7.1076 16.806 6.0552 19.4928 11.0136 21.9768C11.2704 21.99 11.5332 21.9972 11.8044 21.9972C12.0672 21.9972 12.3216 21.99 12.5712 21.9768C16.2804 20.5824 16.6368 17.8056 16.4592 15.9Z" fill="var(--fill-0, #FFDF99)"/>
</g>
</svg>
