<svg width="24" height="24" viewBox="0 0 24 24" fill="none" xmlns="http://www.w3.org/2000/svg">
<g id="Pie chart">
<g id="Icon">
<path d="M20.5283 9C20.6953 9 20.7788 9 20.8456 8.9639C20.9014 8.93375 20.9522 8.87881 20.9778 8.82075C21.0084 8.75125 21.0022 8.67409 20.9898 8.51978C20.9398 7.89515 20.7922 7.28119 20.5516 6.70043C20.2497 5.97138 19.807 5.30895 19.249 4.75096C18.6911 4.19296 18.0286 3.75034 17.2996 3.44836C16.7188 3.2078 16.1048 3.06024 15.4802 3.01016C15.3259 2.99779 15.2487 2.99161 15.1792 3.02225C15.1212 3.04785 15.0663 3.09856 15.0361 3.15438C15 3.22121 15 3.3047 15 3.47167V8.51928C15 8.68755 15 8.77168 15.0327 8.83595C15.0616 8.89248 15.1075 8.93845 15.1641 8.96725C15.2283 9 15.3125 9 15.4807 9H20.5283Z" stroke="#121B26" stroke-width="2" stroke-linecap="round" stroke-linejoin="round"/>
<path d="M12 21C16.9706 21 21 16.9706 21 12H15.2C14.0799 12 13.5198 12 13.092 11.782C12.7157 11.5903 12.4097 11.2843 12.218 10.908C12 10.4802 12 9.9201 12 8.8V3C7.02944 3 3 7.02944 3 12C3 16.9706 7.02944 21 12 21Z" stroke="#121B26" stroke-width="2" stroke-linecap="round" stroke-linejoin="round"/>
</g>
</g>
</svg>
