<svg width="24" height="24" viewBox="0 0 24 24" fill="none" xmlns="http://www.w3.org/2000/svg">
<g id="Energy signal">
<path id="Icon" d="M19.1414 5.07695C20.9097 6.85285 22 9.28549 22 11.9689C22 14.6841 20.8836 17.1426 19.0782 18.9237M5 19C3.14864 17.2131 2 14.723 2 11.9689C2 9.24652 3.12222 6.78225 4.93603 5M16.2849 8.07388C17.3458 9.07301 18 10.4416 18 11.9513C18 13.4789 17.3302 14.8621 16.2469 15.8641M7.8 15.907C6.68918 14.9017 6 13.5008 6 11.9513C6 10.4197 6.67333 9.03329 7.76162 8.03059M12 9.01515L10.5 11.9688H13.5L12 14.9225" stroke="#121B26" stroke-width="2" stroke-linecap="round" stroke-linejoin="round"/>
</g>
</svg>
