<svg width="24" height="24" viewBox="0 0 18.6667 18.6667" fill="none" xmlns="http://www.w3.org/2000/svg">
<path id="Icon" d="M3.08333 17.6667V13.5M3.08333 5.16667V1M1 3.08333H5.16667M1 15.5833H5.16667M10.1667 1.83333L8.72152 5.59072C8.48651 6.20174 8.369 6.50726 8.18628 6.76424C8.02432 6.992 7.82533 7.19099 7.59757 7.35294C7.34059 7.53567 7.03508 7.65318 6.42405 7.88819L2.66667 9.33333L6.42405 10.7785C7.03508 11.0135 7.34059 11.131 7.59757 11.3137C7.82533 11.4757 8.02432 11.6747 8.18628 11.9024C8.369 12.1594 8.48651 12.4649 8.72152 13.0759L10.1667 16.8333L11.6118 13.0759C11.8468 12.4649 11.9643 12.1594 12.1471 11.9024C12.309 11.6747 12.508 11.4757 12.7358 11.3137C12.9927 11.131 13.2983 11.0135 13.9093 10.7785L17.6667 9.33333L13.9093 7.88818C13.2983 7.65317 12.9927 7.53567 12.7358 7.35294C12.508 7.19099 12.309 6.992 12.1471 6.76424C11.9643 6.50726 11.8468 6.20174 11.6118 5.59072L10.1667 1.83333Z" stroke="white" stroke-width="2" stroke-linecap="round" stroke-linejoin="round"/>
</svg>
