<svg width="24" height="24" viewBox="0 0 21.9822 21.9822" fill="none" xmlns="http://www.w3.org/2000/svg">
<g id="Icon">
<path d="M16.2 12.9822C16.477 12.9822 16.6155 12.9822 16.7278 13.0437C16.8204 13.0945 16.9065 13.1898 16.9478 13.287C16.9978 13.4048 16.9852 13.5302 16.96 13.7809C16.8296 15.081 16.3822 16.3337 15.6518 17.4268C14.7727 18.7424 13.5233 19.7678 12.0615 20.3733C10.5997 20.9788 8.99113 21.1372 7.43928 20.8285C5.88743 20.5198 4.46197 19.7579 3.34315 18.6391C2.22433 17.5203 1.4624 16.0948 1.15372 14.543C0.84504 12.9911 1.00347 11.3826 1.60897 9.92077C2.21447 8.45896 3.23985 7.20953 4.55544 6.33048C5.64857 5.60008 6.90125 5.15264 8.20131 5.0222C8.45207 4.99704 8.57745 4.98446 8.69528 5.03445C8.79249 5.07569 8.88776 5.16188 8.9385 5.25448C9 5.36674 9 5.50524 9 5.78223V12.1822C9 12.4623 9 12.6023 9.0545 12.7092C9.10244 12.8033 9.17893 12.8798 9.27301 12.9277C9.37996 12.9822 9.51998 12.9822 9.8 12.9822H16.2Z" stroke="#121B26" stroke-width="2" stroke-linecap="round" stroke-linejoin="round"/>
<path d="M13 1.78223C13 1.50523 13 1.36673 13.0615 1.25447C13.1122 1.16187 13.2075 1.07568 13.3047 1.03444C13.4225 0.984448 13.5479 0.997024 13.7987 1.02218C15.6271 1.20558 17.346 2.01453 18.6569 3.32538C19.9677 4.63622 20.7767 6.35513 20.9601 8.18353C20.9852 8.4343 20.9978 8.55969 20.9478 8.67752C20.9066 8.77472 20.8204 8.86999 20.7278 8.92073C20.6155 8.98223 20.477 8.98223 20.2 8.98223L13.8 8.98223C13.52 8.98223 13.38 8.98223 13.273 8.92774C13.1789 8.8798 13.1024 8.80331 13.0545 8.70923C13 8.60227 13 8.46226 13 8.18223V1.78223Z" stroke="#121B26" stroke-width="2" stroke-linecap="round" stroke-linejoin="round"/>
</g>
</svg>
