<svg preserveAspectRatio="none" width="100%" height="100%" overflow="visible" style="display: block;" viewBox="0 0 20.0003 22.0001" fill="none" xmlns="http://www.w3.org/2000/svg">
<path id="Icon" d="M7.00013 5.00001V9.50121C7.00013 10.0521 7.00013 10.3276 6.93145 10.5829C6.8706 10.809 6.7705 11.0228 6.6357 11.2143C6.48357 11.4305 6.27195 11.6068 5.84872 11.9595L2.15154 15.0405C1.7283 15.3932 1.51669 15.5695 1.36455 15.7857C1.22976 15.9773 1.12965 16.191 1.0688 16.4172C1.00013 16.6724 1.00013 16.9479 1.00013 17.4988V17.8C1.00013 18.9201 1.00013 19.4802 1.21812 19.908C1.40986 20.2843 1.71582 20.5903 2.09215 20.782C2.51997 21 3.08002 21 4.20013 21H15.8001C16.9202 21 17.4803 21 17.9081 20.782C18.2844 20.5903 18.5904 20.2843 18.7821 19.908C19.0001 19.4802 19.0001 18.9201 19.0001 17.8V17.4988C19.0001 16.9479 19.0001 16.6724 18.9315 16.4172C18.8706 16.191 18.7705 15.9773 18.6357 15.7857C18.4836 15.5695 18.272 15.3932 17.8487 15.0405L14.1515 11.9595C13.7283 11.6068 13.5167 11.4305 13.3646 11.2143C13.2298 11.0228 13.1297 10.809 13.0688 10.5829C13.0001 10.3276 13.0001 10.0521 13.0001 9.50121V5.00001M6.30013 5.00001H13.7001C13.9802 5.00001 14.1202 5.00001 14.2271 4.94552C14.3212 4.89758 14.3977 4.82109 14.4456 4.72701C14.5001 4.62005 14.5001 4.48004 14.5001 4.20001V1.80001C14.5001 1.51999 14.5001 1.37997 14.4456 1.27302C14.3977 1.17894 14.3212 1.10245 14.2271 1.05451C14.1202 1.00001 13.9802 1.00001 13.7001 1.00001H6.30013C6.0201 1.00001 5.88009 1.00001 5.77313 1.05451C5.67905 1.10245 5.60256 1.17894 5.55463 1.27302C5.50013 1.37997 5.50013 1.51999 5.50013 1.80001V4.20001C5.50013 4.48004 5.50013 4.62005 5.55463 4.72701C5.60256 4.82109 5.67905 4.89758 5.77313 4.94552C5.88009 5.00001 6.0201 5.00001 6.30013 5.00001ZM3.50013 16H16.5001C16.9648 16 17.1971 16 17.3903 16.0384C18.1837 16.1963 18.8039 16.8165 18.9617 17.6098C19.0001 17.803 19.0001 18.0354 19.0001 18.5C19.0001 18.9647 19.0001 19.197 18.9617 19.3902C18.8039 20.1836 18.1837 20.8038 17.3903 20.9616C17.1971 21 16.9648 21 16.5001 21H3.50013C3.03547 21 2.80315 21 2.60995 20.9616C1.81657 20.8038 1.19637 20.1836 1.03856 19.3902C1.00013 19.197 1.00013 18.9647 1.00013 18.5C1.00013 18.0354 1.00013 17.803 1.03856 17.6098C1.19637 16.8165 1.81657 16.1963 2.60995 16.0384C2.80315 16 3.03547 16 3.50013 16Z" stroke="var(--stroke-0, #121B26)" stroke-width="2" stroke-linecap="round" stroke-linejoin="round"/>
</svg>
