<svg preserveAspectRatio="none" width="100%" height="100%" overflow="visible" style="display: block;" viewBox="0 0 20 22" fill="none" xmlns="http://www.w3.org/2000/svg">
<path id="Icon" d="M7 17.5H13M5 14H15M3 1H17C18.1046 1 19 1.99492 19 3.22222V18.7778C19 20.0051 18.1046 21 17 21H3C1.89543 21 1 20.0051 1 18.7778V3.22222C1 1.99492 1.89543 1 3 1ZM9.9976 5.21194C9.29783 4.4328 8.13091 4.22321 7.25414 4.93667C6.37738 5.65013 6.25394 6.84299 6.94247 7.6868C7.631 8.53061 9.9976 10.5 9.9976 10.5C9.9976 10.5 12.3642 8.53061 13.0527 7.6868C13.7413 6.84299 13.6329 5.64262 12.7411 4.93667C11.8492 4.23072 10.6974 4.4328 9.9976 5.21194Z" stroke="var(--stroke-0, #121B26)" stroke-width="2" stroke-linecap="round" stroke-linejoin="round"/>
</svg>
