<svg preserveAspectRatio="none" width="100%" height="100%" overflow="visible" style="display: block;" viewBox="0 0 17 22" fill="none" xmlns="http://www.w3.org/2000/svg">
<path id="Icon" d="M11.5 15.5V18C11.5 18.9319 11.5 19.3978 11.3478 19.7654C11.1448 20.2554 10.7554 20.6448 10.2654 20.8478C9.89783 21 9.43188 21 8.5 21C7.56812 21 7.10218 21 6.73463 20.8478C6.24458 20.6448 5.85523 20.2554 5.65224 19.7654C5.5 19.3978 5.5 18.9319 5.5 18V15.5M11.5 15.5C14.1489 14.3427 16 11.5755 16 8.5C16 4.35786 12.6421 1 8.5 1C4.35786 1 1 4.35786 1 8.5C1 11.5755 2.85114 14.3427 5.5 15.5M11.5 15.5H5.5" stroke="black" stroke-width="2" stroke-linecap="round" stroke-linejoin="round"/>
</svg>
