<svg width="24" height="24" viewBox="0 0 24 24" fill="none" xmlns="http://www.w3.org/2000/svg">
<path d="M12.8182 22.909C12.6328 22.909 12.4517 22.86 12.2898 22.7705C11.7635 22.4786 11.5739 21.8138 11.8658 21.2876L14.1371 17.2009L11.0455 14.431L8.8402 16.9303C8.64205 17.2542 8.28835 17.4523 7.90909 17.4545H3C2.39702 17.4545 1.90909 16.9665 1.90909 16.3635C1.90909 15.7606 2.39702 15.2726 3 15.2726H7.29546L10.1143 10.8195L10.0888 10.8046L12.4325 6.6519L10.2465 5.99991L7.54475 8.04323C7.16761 8.29466 6.66051 8.19238 6.40909 7.81525C6.15767 7.43812 6.25994 6.93102 6.63707 6.6796L9.54546 4.49778C9.67969 4.40829 9.83736 4.36142 9.99929 4.36355L13.483 4.79181H13.4893C13.6385 4.79181 13.7834 4.8323 13.9091 4.909L16.5128 6.38983C16.5746 6.42818 16.6278 6.47292 16.6768 6.52619C16.7472 6.5965 16.8047 6.67747 16.8452 6.76909L18.2749 10.3635H21.2749C21.7266 10.3635 22.093 10.73 22.093 11.1817C22.093 11.6334 21.7266 11.9999 21.2749 11.9999H17.7337C17.4055 11.9999 17.1094 11.8039 16.9815 11.5035L15.6009 8.80602L13.3658 12.7627L16.2102 16.0418C16.6406 16.3699 16.7621 16.9644 16.4979 17.4374L13.7706 22.3465C13.5788 22.6917 13.2145 22.909 12.8182 22.909ZM17.1818 5.45446C15.9759 5.45446 15 4.4786 15 3.27264C15 2.06667 15.9759 1.09082 17.1818 1.09082C18.3878 1.09082 19.3636 2.06667 19.3636 3.27264C19.3636 4.4786 18.3878 5.45446 17.1818 5.45446Z" fill="#FFD882"/>
<path d="M10.1143 10.8198L7.29545 15.2729L8.8402 16.9285L12.8054 12.4349L10.1143 10.8198Z" fill="#2A4E62"/>
<path d="M16.5107 6.39L13.9091 4.90918C13.7834 4.83248 13.6364 4.79199 13.4893 4.79199H13.483L10.0909 10.8048L13.3636 12.7693L16.7919 6.6883C16.7259 6.56685 16.63 6.46458 16.5107 6.39Z" fill="#27D2E6"/>
<path d="M13.3636 12.7713L10.0909 10.8046L10.6428 9.82666L9.81818 11.2926C9.29191 12.1725 9.55398 13.3103 10.4126 13.8686L14.1349 17.2031L16.2102 16.0461L13.3636 12.767V12.7713Z" fill="#34617A"/>
</svg>
