<svg width="24" height="24" viewBox="0 0 24 24" fill="none" xmlns="http://www.w3.org/2000/svg">
<path d="M10.0476 2.51518C9.8952 4.20718 9.1956 7.37278 6.2916 10.4232C6.378 9.29758 6.1248 8.45998 5.8452 7.89958C5.6904 7.59118 5.2344 7.65118 5.1684 7.98958C5.034 8.67958 4.686 9.74878 3.8184 11.2188C2.1396 14.064 2.352 21.9972 11.8044 21.9972C21.2568 21.9972 21.8928 13.728 20.55 10.3716C19.674 8.18158 18.348 6.79678 17.5308 6.09838C17.2632 5.86918 16.848 6.05278 16.8372 6.40438C16.8156 7.11838 16.6656 8.12398 16.062 8.79838C16.0464 7.56118 15.168 3.91438 11.3172 1.84078C10.7712 1.54678 10.104 1.89838 10.0476 2.51518Z" fill="#FF5D50"/>
<path d="M16.4592 15.9001C16.3608 14.8441 15.0372 11.9965 11.4756 10.1245C11.2272 9.99371 10.9344 10.1977 10.9716 10.4761C11.118 11.5741 11.2752 13.7689 10.4076 14.8057C10.5024 13.8589 9.9828 13.0753 9.5484 12.5953C9.3516 12.3793 8.9964 12.4861 8.9508 12.7753C8.868 13.2985 8.6496 14.0941 8.094 15.0709C7.1076 16.8061 6.0552 19.4929 11.0136 21.9769C11.2704 21.9901 11.5332 21.9973 11.8044 21.9973C12.0672 21.9973 12.3216 21.9901 12.5712 21.9769C16.2804 20.5825 16.6368 17.8057 16.4592 15.9001Z" fill="#FFDF99"/>
</svg>
