<svg width="255" height="136" viewBox="0 0 255 136" fill="none" xmlns="http://www.w3.org/2000/svg">
<g clip-path="url(#clip0_7920_650)">
<rect width="256.651" height="65" transform="matrix(0.669131 0.743145 0.743145 -0.669131 55 -10.5063)" fill="url(#paint0_linear_7920_650)" fill-opacity="0.2"/>
<rect width="206.553" height="65" transform="matrix(0.669131 0.743145 0.743145 -0.669131 114.36 -9.64648)" fill="url(#paint1_linear_7920_650)" fill-opacity="0.2"/>
<rect width="150.523" height="65" transform="matrix(0.669131 0.743145 0.743145 -0.669131 174.985 -8.55029)" fill="url(#paint2_linear_7920_650)" fill-opacity="0.2"/>
</g>
<defs>
<linearGradient id="paint0_linear_7920_650" x1="122.967" y1="-36.4722" x2="116.921" y2="57.1023" gradientUnits="userSpaceOnUse">
<stop stop-color="#535C77"/>
<stop offset="1" stop-color="#3F465D" stop-opacity="0"/>
</linearGradient>
<linearGradient id="paint1_linear_7920_650" x1="98.9638" y1="-36.4722" x2="91.4686" y2="56.8912" gradientUnits="userSpaceOnUse">
<stop stop-color="#535C77"/>
<stop offset="1" stop-color="#3F465D" stop-opacity="0"/>
</linearGradient>
<linearGradient id="paint2_linear_7920_650" x1="72.119" y1="-36.4722" x2="61.8916" y2="56.3663" gradientUnits="userSpaceOnUse">
<stop stop-color="#535C77"/>
<stop offset="1" stop-color="#3F465D" stop-opacity="0"/>
</linearGradient>
<clipPath id="clip0_7920_650">
<path d="M0 16C0 7.16344 7.16345 0 16 0H239C247.837 0 255 7.16344 255 16V120C255 128.837 247.837 136 239 136H16C7.16344 136 0 128.837 0 120V16Z" fill="white"/>
</clipPath>
</defs>
</svg>
