<svg preserveAspectRatio="none" width="100%" height="100%" overflow="visible" style="display: block;" viewBox="0 0 20.0003 20.7331" fill="none" xmlns="http://www.w3.org/2000/svg">
<path id="Icon" d="M6.00014 15.7331H14.0001M9.01783 1.49715L2.23553 6.77228C1.78216 7.1249 1.55548 7.30121 1.39217 7.52201C1.24751 7.7176 1.13974 7.93794 1.07417 8.17221C1.00014 8.43667 1.00014 8.72385 1.00014 9.29821V16.5331C1.00014 17.6532 1.00014 18.2133 1.21813 18.6411C1.40987 19.0174 1.71583 19.3234 2.09216 19.5152C2.51998 19.7331 3.08003 19.7331 4.20014 19.7331H15.8001C16.9202 19.7331 17.4803 19.7331 17.9081 19.5152C18.2844 19.3234 18.5904 19.0174 18.7822 18.6411C19.0001 18.2133 19.0001 17.6532 19.0001 16.5331V9.29821C19.0001 8.72385 19.0001 8.43667 18.9261 8.17221C18.8605 7.93794 18.7528 7.7176 18.6081 7.52201C18.4448 7.30121 18.2181 7.1249 17.7647 6.77228L10.9824 1.49715C10.6311 1.2239 10.4555 1.08727 10.2615 1.03476C10.0903 0.988415 9.90994 0.988415 9.73879 1.03476C9.54482 1.08727 9.36916 1.2239 9.01783 1.49715Z" stroke="var(--stroke-0, #121B26)" stroke-width="2" stroke-linecap="round" stroke-linejoin="round"/>
</svg>
