<svg preserveAspectRatio="none" width="100%" height="100%" overflow="visible" style="display: block;" viewBox="0 0 12.8667 12.8667" fill="none" xmlns="http://www.w3.org/2000/svg">
<path id="Icon" d="M10.225 4.1V1.18333M2.64167 11.6833V8.76667M8.76667 2.64167H11.6833M1.18333 10.225H4.1M3.225 0.6L2.7674 1.5152C2.61253 1.82494 2.5351 1.97981 2.43165 2.11401C2.33985 2.2331 2.2331 2.33985 2.11401 2.43165C1.97981 2.5351 1.82494 2.61253 1.5152 2.7674L0.6 3.225L1.5152 3.6826C1.82494 3.83747 1.97981 3.9149 2.11401 4.01835C2.2331 4.11015 2.33985 4.2169 2.43165 4.33599C2.5351 4.47019 2.61253 4.62506 2.7674 4.9348L3.225 5.85L3.6826 4.9348C3.83747 4.62506 3.9149 4.47019 4.01835 4.33599C4.11015 4.2169 4.2169 4.11015 4.33599 4.01835C4.47019 3.9149 4.62506 3.83747 4.9348 3.6826L5.85 3.225L4.9348 2.7674C4.62506 2.61253 4.47019 2.5351 4.33599 2.43165C4.2169 2.33985 4.11015 2.2331 4.01835 2.11401C3.9149 1.97981 3.83747 1.82494 3.6826 1.5152L3.225 0.6ZM9.35 6.43333L8.79518 7.54298C8.64031 7.85272 8.56287 8.00759 8.45943 8.14179C8.36763 8.26087 8.26087 8.36763 8.14179 8.45943C8.00759 8.56287 7.85272 8.64031 7.54298 8.79518L6.43333 9.35L7.54298 9.90482C7.85272 10.0597 8.00759 10.1371 8.14179 10.2406C8.26087 10.3324 8.36763 10.4391 8.45943 10.5582C8.56287 10.6924 8.64031 10.8473 8.79518 11.157L9.35 12.2667L9.90482 11.157C10.0597 10.8473 10.1371 10.6924 10.2406 10.5582C10.3324 10.4391 10.4391 10.3324 10.5582 10.2406C10.6924 10.1371 10.8473 10.0597 11.157 9.90482L12.2667 9.35L11.157 8.79518C10.8473 8.64031 10.6924 8.56287 10.5582 8.45943C10.4391 8.36763 10.3324 8.26087 10.2406 8.14179C10.1371 8.00759 10.0597 7.85272 9.90482 7.54298L9.35 6.43333Z" stroke="var(--stroke-0, #FD5E0D)" stroke-width="1.2" stroke-linecap="round" stroke-linejoin="round"/>
</svg>
