<svg width="24" height="24" viewBox="0 0 24 24" fill="none" xmlns="http://www.w3.org/2000/svg">
<path d="M7.5 4.5C7.5 3.11929 8.61929 2 10 2C11.3807 2 12.5 3.11929 12.5 4.5V6H13.5C14.8978 6 15.5967 6 16.1481 6.22836C16.8831 6.53284 17.4672 7.11687 17.7716 7.85195C18 8.40326 18 10.1022 18 11.5H19.5C20.8807 11.5 22 12.6193 22 14C22 15.3807 20.8807 16.5 19.5 16.5H18V17.2C18 18.8802 18 19.7202 17.673 20.362C17.3854 20.9265 16.9265 21.3854 16.362 21.673C15.7202 22 14.8802 22 13.2 22H12.5V20.25C12.5 19.0074 11.4926 18 10.25 18C9.00736 18 8 19.0074 8 20.25V22H6.8C5.11984 22 4.27976 22 3.63803 21.673C3.07354 21.3854 2.6146 20.9265 2.32698 20.362C2 19.7202 2 19.8802 2 18.2V16.5H3.5C4.88071 16.5 6 15.3807 6 14C6 12.6193 4.88071 11.5 3.5 11.5H2C2 10.1022 2 8.40326 2.22836 7.85195C2.53284 7.11687 3.11687 6.53284 3.85195 6.22836C4.40326 6 5.10218 6 6.5 6H7.5V4.5Z" stroke="#121B26" stroke-width="2" stroke-linecap="round" stroke-linejoin="round"/>
</svg>
